# Blender v2.80 (sub 75) OBJ File: ''
# www.blender.org
mtllib waterLOD2.mtl
o Plane
v -45.000000 6.999999 38.000000
v 45.000000 6.999999 38.000000
v 45.000000 7.000001 -38.000000
v -45.000000 7.000001 -38.000000
v -45.000000 7.000000 0.000000
v 45.000000 7.000000 0.000000
v 0.000000 6.999999 38.000000
v 0.000000 7.000001 -38.000000
v 0.000000 7.000000 0.000000
v -45.000000 6.999999 19.000000
v 45.000000 6.999999 19.000000
v 0.000000 6.999999 19.000000
v 22.500000 6.999999 38.000000
v 22.500000 7.000001 -38.000000
v 22.500000 7.000000 0.000000
v 22.500000 6.999999 19.000000
v -45.000000 7.000001 -19.000000
v 45.000000 7.000001 -19.000000
v 0.000000 7.000001 -19.000000
v 22.500000 7.000001 -19.000000
v -22.500000 7.000001 -38.000000
v -22.500000 7.000000 0.000000
v -22.500000 6.999999 38.000000
v -22.500000 6.999999 19.000000
v -22.500000 7.000001 -19.000000
vt 0.750000 0.750000
vt 1.000000 0.750000
vt 1.000000 1.000000
vt 0.750000 1.000000
vt 0.750000 0.250000
vt 1.000000 0.250000
vt 1.000000 0.500000
vt 0.750000 0.500000
vt 0.250000 0.250000
vt 0.500000 0.250000
vt 0.500000 0.500000
vt 0.250000 0.500000
vt 0.250000 0.750000
vt 0.500000 0.750000
vt 0.500000 1.000000
vt 0.250000 1.000000
vt 0.250000 0.000000
vt 0.500000 0.000000
vt 0.750000 0.000000
vt 1.000000 0.000000
vt 0.000000 0.500000
vt 0.000000 0.750000
vt 0.000000 0.000000
vt 0.000000 0.250000
vt 0.000000 1.000000
vn 0.0000 1.0000 0.0000
usemtl None
s 1
f 20/1/1 18/2/1 3/3/1 14/4/1
f 16/5/1 11/6/1 6/7/1 15/8/1
f 24/9/1 12/10/1 9/11/1 22/12/1
f 25/13/1 19/14/1 8/15/1 21/16/1
f 23/17/1 7/18/1 12/10/1 24/9/1
f 13/19/1 2/20/1 11/6/1 16/5/1
f 7/18/1 13/19/1 16/5/1 12/10/1
f 12/10/1 16/5/1 15/8/1 9/11/1
f 19/14/1 20/1/1 14/4/1 8/15/1
f 9/11/1 15/8/1 20/1/1 19/14/1
f 22/12/1 9/11/1 19/14/1 25/13/1
f 15/8/1 6/7/1 18/2/1 20/1/1
f 5/21/1 22/12/1 25/13/1 17/22/1
f 1/23/1 23/17/1 24/9/1 10/24/1
f 17/22/1 25/13/1 21/16/1 4/25/1
f 10/24/1 24/9/1 22/12/1 5/21/1
