# Blender v2.80 (sub 75) OBJ File: ''
# www.blender.org
mtllib cave_lava.mtl
o cave_lava
v 34.000000 6.000000 5.000000
v 34.000000 5.000000 0.000000
v 34.000000 5.000000 5.000000
v 34.000000 6.000000 0.000000
v 38.000000 6.000000 -9.000000
v 38.000000 5.000000 -11.000000
v 38.000000 5.000000 -9.000000
v 38.000000 6.000000 -11.000000
v 39.000000 6.000000 -11.000000
v 39.000000 5.000000 -14.000000
v 39.000000 5.000000 -11.000000
v 39.000000 6.000000 -14.000000
v 40.000000 6.000000 -14.000000
v 40.000000 5.000000 -15.000000
v 40.000000 5.000000 -14.000000
v 40.000000 6.000000 -15.000000
v 36.000000 5.000000 1.000000
v 36.000000 5.000000 0.000000
v 36.000000 6.000000 1.000000
v 36.000000 6.000000 0.000000
v 37.000000 5.000000 2.000000
v 37.000000 5.000000 1.000000
v 37.000000 6.000000 2.000000
v 37.000000 6.000000 1.000000
v 39.000000 5.000000 5.000000
v 39.000000 5.000000 2.000000
v 39.000000 6.000000 5.000000
v 39.000000 6.000000 2.000000
v 43.000000 5.000000 -9.000000
v 43.000000 5.000000 -15.000000
v 43.000000 6.000000 -9.000000
v 43.000000 6.000000 -15.000000
v 39.000000 5.000000 5.000000
v 34.000000 6.000000 5.000000
v 34.000000 5.000000 5.000000
v 39.000000 6.000000 5.000000
v 43.000000 5.000000 -9.000000
v 38.000000 6.000000 -9.000000
v 38.000000 5.000000 -9.000000
v 43.000000 6.000000 -9.000000
v 37.000000 5.000000 2.000000
v 37.000000 6.000000 2.000000
v 39.000000 5.000000 2.000000
v 39.000000 6.000000 2.000000
v 36.000000 5.000000 1.000000
v 36.000000 6.000000 1.000000
v 37.000000 5.000000 1.000000
v 37.000000 6.000000 1.000000
v 34.000000 5.000000 0.000000
v 34.000000 6.000000 0.000000
v 36.000000 5.000000 0.000000
v 36.000000 6.000000 0.000000
v 38.000000 5.000000 -11.000000
v 38.000000 6.000000 -11.000000
v 39.000000 5.000000 -11.000000
v 39.000000 6.000000 -11.000000
v 39.000000 5.000000 -14.000000
v 39.000000 6.000000 -14.000000
v 40.000000 5.000000 -14.000000
v 40.000000 6.000000 -14.000000
v 40.000000 5.000000 -15.000000
v 40.000000 6.000000 -15.000000
v 43.000000 5.000000 -15.000000
v 43.000000 6.000000 -15.000000
v 37.000000 5.000000 2.000000
v 39.000000 5.000000 5.000000
v 34.000000 5.000000 5.000000
v 39.000000 5.000000 2.000000
v 36.000000 5.000000 1.000000
v 37.000000 5.000000 1.000000
v 34.000000 5.000000 0.000000
v 36.000000 5.000000 0.000000
v 38.000000 5.000000 -11.000000
v 43.000000 5.000000 -9.000000
v 38.000000 5.000000 -9.000000
v 39.000000 5.000000 -11.000000
v 39.000000 5.000000 -14.000000
v 40.000000 5.000000 -14.000000
v 40.000000 5.000000 -15.000000
v 43.000000 5.000000 -15.000000
v 34.000000 6.000000 5.000000
v 39.000000 6.000000 5.000000
v 37.000000 6.000000 2.000000
v 39.000000 6.000000 2.000000
v 36.000000 6.000000 1.000000
v 37.000000 6.000000 1.000000
v 34.000000 6.000000 0.000000
v 36.000000 6.000000 0.000000
v 38.000000 6.000000 -9.000000
v 43.000000 6.000000 -9.000000
v 38.000000 6.000000 -11.000000
v 39.000000 6.000000 -11.000000
v 39.000000 6.000000 -14.000000
v 40.000000 6.000000 -14.000000
v 40.000000 6.000000 -15.000000
v 43.000000 6.000000 -15.000000
vt 0.208984 0.500000
vt 0.208984 0.500000
vt 0.208984 0.500000
vt 0.208984 0.500000
vt 0.208984 0.500000
vt 0.208984 0.500000
vt 0.208984 0.500000
vt 0.208984 0.500000
vt 0.208984 0.500000
vt 0.208984 0.500000
vt 0.208984 0.500000
vt 0.208984 0.500000
vt 0.208984 0.500000
vt 0.208984 0.500000
vt 0.208984 0.500000
vt 0.208984 0.500000
vt 0.208984 0.500000
vt 0.208984 0.500000
vt 0.208984 0.500000
vt 0.208984 0.500000
vt 0.208984 0.500000
vt 0.208984 0.500000
vt 0.208984 0.500000
vt 0.208984 0.500000
vt 0.208984 0.500000
vt 0.208984 0.500000
vt 0.208984 0.500000
vt 0.208984 0.500000
vt 0.208984 0.500000
vt 0.208984 0.500000
vt 0.208984 0.500000
vt 0.208984 0.500000
vt 0.208984 0.500000
vt 0.208984 0.500000
vt 0.208984 0.500000
vt 0.208984 0.500000
vt 0.208984 0.500000
vt 0.208984 0.500000
vt 0.208984 0.500000
vt 0.208984 0.500000
vt 0.208984 0.500000
vt 0.208984 0.500000
vt 0.208984 0.500000
vt 0.208984 0.500000
vt 0.208984 0.500000
vt 0.208984 0.500000
vt 0.208984 0.500000
vt 0.208984 0.500000
vt 0.208984 0.500000
vt 0.208984 0.500000
vt 0.208984 0.500000
vt 0.208984 0.500000
vt 0.208984 0.500000
vt 0.208984 0.500000
vt 0.208984 0.500000
vt 0.208984 0.500000
vt 0.208984 0.500000
vt 0.208984 0.500000
vt 0.208984 0.500000
vt 0.208984 0.500000
vt 0.208984 0.500000
vt 0.208984 0.500000
vt 0.208984 0.500000
vt 0.208984 0.500000
vt 0.208984 0.500000
vt 0.208984 0.500000
vt 0.208984 0.500000
vt 0.208984 0.500000
vt 0.208984 0.500000
vt 0.208984 0.500000
vt 0.208984 0.500000
vt 0.208984 0.500000
vt 0.208984 0.500000
vt 0.208984 0.500000
vt 0.208984 0.500000
vt 0.208984 0.500000
vt 0.208984 0.500000
vt 0.208984 0.500000
vt 0.208984 0.500000
vt 0.208984 0.500000
vt 0.208984 0.500000
vt 0.208984 0.500000
vt 0.208984 0.500000
vt 0.208984 0.500000
vt 0.208984 0.500000
vt 0.208984 0.500000
vt 0.208984 0.500000
vt 0.208984 0.500000
vt 0.208984 0.500000
vt 0.208984 0.500000
vt 0.208984 0.500000
vt 0.208984 0.500000
vt 0.208984 0.500000
vt 0.208984 0.500000
vt 0.208984 0.500000
vt 0.208984 0.500000
vn -1.0000 -0.0000 0.0000
vn 1.0000 0.0000 0.0000
vn 0.0000 -0.0000 1.0000
vn 0.0000 0.0000 -1.0000
vn 0.0000 -1.0000 0.0000
vn 0.0000 1.0000 0.0000
usemtl palette
s 1
f 1/1/1 2/2/1 3/3/1
f 4/4/1 2/2/1 1/1/1
f 5/5/1 6/6/1 7/7/1
f 8/8/1 6/6/1 5/5/1
f 9/9/1 10/10/1 11/11/1
f 12/12/1 10/10/1 9/9/1
f 13/13/1 14/14/1 15/15/1
f 16/16/1 14/14/1 13/13/1
f 17/17/2 18/18/2 19/19/2
f 19/19/2 18/18/2 20/20/2
f 21/21/2 22/22/2 23/23/2
f 23/23/2 22/22/2 24/24/2
f 25/25/2 26/26/2 27/27/2
f 27/27/2 26/26/2 28/28/2
f 29/29/2 30/30/2 31/31/2
f 31/31/2 30/30/2 32/32/2
f 33/33/3 34/34/3 35/35/3
f 36/36/3 34/34/3 33/33/3
f 37/37/3 38/38/3 39/39/3
f 40/40/3 38/38/3 37/37/3
f 41/41/4 42/42/4 43/43/4
f 43/43/4 42/42/4 44/44/4
f 45/45/4 46/46/4 47/47/4
f 47/47/4 46/46/4 48/48/4
f 49/49/4 50/50/4 51/51/4
f 51/51/4 50/50/4 52/52/4
f 53/53/4 54/54/4 55/55/4
f 55/55/4 54/54/4 56/56/4
f 57/57/4 58/58/4 59/59/4
f 59/59/4 58/58/4 60/60/4
f 61/61/4 62/62/4 63/63/4
f 63/63/4 62/62/4 64/64/4
f 65/65/5 66/66/5 67/67/5
f 68/68/5 66/66/5 65/65/5
f 69/69/5 65/65/5 67/67/5
f 70/70/5 65/65/5 69/69/5
f 71/71/5 69/69/5 67/67/5
f 72/72/5 69/69/5 71/71/5
f 73/73/5 74/74/5 75/75/5
f 76/76/5 74/74/5 73/73/5
f 77/77/5 74/74/5 76/76/5
f 78/78/5 74/74/5 77/77/5
f 79/79/5 74/74/5 78/78/5
f 80/80/5 74/74/5 79/79/5
f 81/81/6 82/82/6 83/83/6
f 83/83/6 82/82/6 84/84/6
f 81/81/6 83/83/6 85/85/6
f 85/85/6 83/83/6 86/86/6
f 81/81/6 85/85/6 87/87/6
f 87/87/6 85/85/6 88/88/6
f 89/89/6 90/90/6 91/91/6
f 91/91/6 90/90/6 92/92/6
f 92/92/6 90/90/6 93/93/6
f 93/93/6 90/90/6 94/94/6
f 94/94/6 90/90/6 95/95/6
f 95/95/6 90/90/6 96/96/6
