# Blender v2.80 (sub 75) OBJ File: ''
# www.blender.org
mtllib light.mtl
o light
v -2.000000 24.000000 0.000001
v -2.000000 23.000000 -0.999999
v -2.000000 23.000000 0.000001
v -2.000000 24.000000 -0.999999
v -1.000000 23.000000 0.000001
v -1.000000 23.000000 -0.999999
v -1.000000 24.000000 0.000001
v -1.000000 24.000000 -0.999999
v -1.000000 23.000000 0.000001
v -2.000000 24.000000 0.000001
v -2.000000 23.000000 0.000001
v -1.000000 24.000000 0.000001
v -2.000000 23.000000 -0.999999
v -2.000000 24.000000 -0.999999
v -1.000000 23.000000 -0.999999
v -1.000000 24.000000 -0.999999
v -2.000000 23.000000 -0.999999
v -1.000000 23.000000 0.000001
v -2.000000 23.000000 0.000001
v -1.000000 23.000000 -0.999999
v -2.000000 24.000000 0.000001
v -1.000000 24.000000 0.000001
v -2.000000 24.000000 -0.999999
v -1.000000 24.000000 -0.999999
vt 0.001953 0.500000
vt 0.001953 0.500000
vt 0.001953 0.500000
vt 0.001953 0.500000
vt 0.001953 0.500000
vt 0.001953 0.500000
vt 0.001953 0.500000
vt 0.001953 0.500000
vt 0.001953 0.500000
vt 0.001953 0.500000
vt 0.001953 0.500000
vt 0.001953 0.500000
vt 0.001953 0.500000
vt 0.001953 0.500000
vt 0.001953 0.500000
vt 0.001953 0.500000
vt 0.001953 0.500000
vt 0.001953 0.500000
vt 0.001953 0.500000
vt 0.001953 0.500000
vt 0.001953 0.500000
vt 0.001953 0.500000
vt 0.001953 0.500000
vt 0.001953 0.500000
vn -1.0000 0.0000 0.0000
vn 1.0000 0.0000 0.0000
vn 0.0000 -0.0000 1.0000
vn 0.0000 0.0000 -1.0000
vn 0.0000 -1.0000 0.0000
vn 0.0000 1.0000 0.0000
usemtl palette
s 1
f 1/1/1 2/2/1 3/3/1
f 4/4/1 2/2/1 1/1/1
f 5/5/2 6/6/2 7/7/2
f 7/7/2 6/6/2 8/8/2
f 9/9/3 10/10/3 11/11/3
f 12/12/3 10/10/3 9/9/3
f 13/13/4 14/14/4 15/15/4
f 15/15/4 14/14/4 16/16/4
f 17/17/5 18/18/5 19/19/5
f 20/20/5 18/18/5 17/17/5
f 21/21/6 22/22/6 23/23/6
f 23/23/6 22/22/6 24/24/6
